<svg xmlns="http://www.w3.org/2000/svg" aria-hidden="true" style="position:absolute;width:0;height:0;overflow:hidden">
  <defs>
    <symbol id="right-arrow-icon" viewBox="0 0 32 32">
      <path d="m15.057 23.057 1.885 1.885 8.943-8.943-8.943-8.943-1.885 1.885 5.724 5.724H8v2.667h12.781l-5.724 5.724z"/>
    </symbol>
    <symbol id="left-arrow-icon" viewBox="0 0 32 32">
      <path d="m16.943 23.057-5.724-5.724H24v-2.667H11.219l5.724-5.724-1.885-1.885L6.115 16l8.943 8.943 1.885-1.885z"/>
    </symbol>
    <symbol id="error-icon" viewBox="0 0 32 32">
      <path d="M15.938 2.667C8.621 2.667 2.667 8.648 2.667 16S8.648 29.333 16 29.333 29.333 23.352 29.333 16 23.324 2.667 15.937 2.667zm.063 24C10.12 26.667 5.334 21.882 5.334 16S10.09 5.333 15.938 5.333c5.917 0 10.729 4.785 10.729 10.667S21.882 26.667 16 26.667z"/>
      <path d="M14.667 9.333h2.667v9.333h-2.667V9.333zm0 10.667h2.667v2.667h-2.667V20z"/>
    </symbol>
    <symbol id="chevron-up-icon" viewBox="0 0 32 32">
      <path d="m8.391 19.057 1.885 1.885L16 15.218l5.724 5.724 1.885-1.885L16 11.448l-7.609 7.609z"/>
    </symbol>
    <symbol id="chevron-down-icon" viewBox="0 0 32 32">
      <path d="M21.724 11.057 16 16.781l-5.724-5.724-1.885 1.885L16 20.551l7.609-7.609-1.885-1.885z"/>
    </symbol>
    <symbol id="search-icon" viewBox="0 0 31 32">
      <path d="M12.8 23.68c2.272 0 4.478-.761 6.268-2.161l5.627 5.627 1.81-1.81-5.627-5.627a10.184 10.184 0 0 0 2.162-6.269c0-5.646-4.594-10.24-10.24-10.24S2.56 7.794 2.56 13.44 7.154 23.68 12.8 23.68zm0-17.92c4.236 0 7.68 3.444 7.68 7.68s-3.444 7.68-7.68 7.68-7.68-3.444-7.68-7.68 3.444-7.68 7.68-7.68z"/>
    </symbol>
    <symbol id="close-icon" viewBox="0 0 32 32">
      <path d="m29.671 28.728-.943.943a1.333 1.333 0 0 1-1.886 0L16 18.829 5.158 29.671a1.333 1.333 0 0 1-1.886 0l-.943-.943a1.333 1.333 0 0 1 0-1.886L13.171 16 2.329 5.158a1.333 1.333 0 0 1 0-1.886l.943-.943a1.333 1.333 0 0 1 1.886 0L16 13.171 26.842 2.329a1.333 1.333 0 0 1 1.886 0l.943.943a1.333 1.333 0 0 1 0 1.886L18.829 16l10.842 10.842a1.333 1.333 0 0 1 0 1.886z"/>
    </symbol>
    <symbol id="youtube-icon" viewBox="0 0 31 32">
      <path d="M28.089 10.063a3.258 3.258 0 0 0-2.292-2.297c-2.037-.559-10.187-.568-10.187-.568s-8.148-.009-10.187.526a3.326 3.326 0 0 0-2.297 2.313c-.537 2.037-.542 6.262-.542 6.262s-.005 4.246.528 6.262a3.26 3.26 0 0 0 2.293 2.296c2.058.559 10.185.568 10.185.568s8.15.009 10.187-.524a3.269 3.269 0 0 0 2.299-2.293c.539-2.036.542-6.259.542-6.259s.026-4.247-.529-6.284zM13.003 20.212l.006-7.805 6.773 3.909-6.78 3.896z"/>
    </symbol>
    <symbol id="facebook-icon" viewBox="0 0 31 32">
      <path d="M28.618 16.699c0-7.228-5.824-13.088-13.008-13.088S2.602 9.471 2.602 16.699c0 6.532 4.757 11.947 10.976 12.929v-9.146h-3.303v-3.783h3.303v-2.883c0-3.28 1.942-5.092 4.913-5.092 1.423 0 2.912.256 2.912.256v3.221h-1.64c-1.616 0-2.12 1.009-2.12 2.044V16.7h3.608l-.577 3.783h-3.031v9.146c6.219-.982 10.976-6.396 10.976-12.929z"/>
    </symbol>
    <symbol id="instagram-icon" viewBox="0 0 31 32">
      <path d="M15.608 6.705c3.128 0 3.498.014 4.728.069 1.143.05 1.76.242 2.172.402a3.63 3.63 0 0 1 1.344.874c.412.412.663.8.878 1.345.16.412.352 1.033.402 2.172.055 1.235.069 1.605.069 4.728s-.014 3.498-.069 4.728c-.05 1.143-.242 1.76-.402 2.172a3.617 3.617 0 0 1-.874 1.344c-.412.412-.8.663-1.344.878-.412.16-1.034.352-2.172.402-1.235.055-1.605.069-4.728.069s-3.498-.014-4.728-.069c-1.143-.05-1.76-.242-2.172-.402a3.629 3.629 0 0 1-1.345-.874 3.667 3.667 0 0 1-.878-1.344c-.16-.412-.352-1.034-.402-2.172-.055-1.235-.069-1.605-.069-4.728s.014-3.498.069-4.728c.05-1.143.242-1.76.402-2.172.211-.544.467-.937.874-1.345.412-.412.8-.663 1.345-.878.412-.16 1.033-.352 2.172-.402 1.23-.055 1.601-.069 4.728-.069h.001zm0-2.108c-3.178 0-3.575.014-4.824.069-1.244.055-2.099.256-2.839.544a5.696 5.696 0 0 0-2.076 1.353 5.728 5.728 0 0 0-1.353 2.071c-.288.746-.489 1.596-.544 2.839-.055 1.253-.069 1.651-.069 4.829s.014 3.575.069 4.824c.055 1.244.256 2.099.544 2.839a5.709 5.709 0 0 0 1.353 2.076A5.721 5.721 0 0 0 7.94 27.39c.746.288 1.596.489 2.839.544 1.248.055 1.646.069 4.824.069s3.576-.014 4.824-.069c1.244-.055 2.099-.256 2.839-.544.768-.297 1.422-.699 2.071-1.349s1.052-1.303 1.349-2.071c.288-.745.489-1.596.544-2.839.055-1.248.069-1.646.069-4.824s-.014-3.575-.069-4.824c-.055-1.244-.256-2.099-.544-2.839a5.483 5.483 0 0 0-1.34-2.081 5.721 5.721 0 0 0-2.071-1.349c-.746-.288-1.596-.489-2.839-.544-1.253-.059-1.651-.073-4.829-.073l-.001.001z"/>
      <path d="M15.608 10.289a6.014 6.014 0 1 0 6.013 6.013 6.014 6.014 0 0 0-6.013-6.013zm0 9.914a3.9 3.9 0 1 1 0-7.8 3.9 3.9 0 0 1 0 7.8zM23.261 10.052a1.404 1.404 0 1 1-2.808 0 1.404 1.404 0 0 1 2.808 0z"/>
    </symbol>
    <symbol id="down-arrow-icon" viewBox="0 0 30 32">
      <path d="m29.242 16.215-3.017-3.017-9.158 9.159V1.907H12.8v20.45l-9.158-9.159-3.017 3.017 14.308 14.308 14.308-14.308z"/>
    </symbol>
    <symbol id="next-icon" viewBox="0 0 17 32">
      <path d="m0 31.038 17.067-14.933L0 1.172v29.867z"/>
    </symbol>
    <symbol id="play-icon" viewBox="0 0 23 32">
      <path d="M.817 31.064a1.533 1.533 0 0 0 1.575-.097l19.809-13.714A1.517 1.517 0 0 0 22.857 16a1.527 1.527 0 0 0-.656-1.253L2.392 1.033A1.516 1.516 0 0 0 .816.934a1.522 1.522 0 0 0-.815 1.352v27.429a1.524 1.524 0 0 0 .817 1.35zM3.048 5.195 18.656 16 3.048 26.805V5.194z"/>
    </symbol>
    <symbol id="icon-logo" viewBox="0 0 110 32">
<path d="M16.403 0.142c0.434-0.050 0.936 0.047 1.354 0.174 0.945 0.288 1.714 0.905 2.169 1.785 0.474 0.902 0.564 1.957 0.252 2.927-0.397 1.196-1.247 1.797-2.309 2.35l0.012 3.489c0.759 0.231 1.498 0.495 2.187 0.894 1.584 0.919 2.669 2.467 3.123 4.23 0.48 1.848 0.207 3.812-0.76 5.459-0.887 1.493-2.3 2.597-3.993 3.019-2.211 0.552-4.086-0.047-5.986-1.176-0.84 0.898-1.67 1.807-2.489 2.725 0.366 0.864 0.487 1.77 0.244 2.687-0.237 0.897-0.866 1.666-1.67 2.121-0.901 0.51-1.928 0.603-2.916 0.321-0.981-0.281-1.805-0.889-2.284-1.801-0.472-0.897-0.511-1.949-0.206-2.907 0.348-1.089 1.057-1.759 2.053-2.257 1.072-0.419 1.958-0.281 3.005 0.096 0.872-0.917 1.693-1.88 2.574-2.789-0.968-1.898-1.281-3.515-0.778-5.606-1.096-0.511-2.153-1.108-3.249-1.62-0.586 0.61-1.301 1.028-2.142 1.169-1.003 0.169-2.061-0.105-2.885-0.694-0.817-0.592-1.354-1.493-1.486-2.493-0.135-0.97 0.12-2.038 0.741-2.803 0.64-0.789 1.634-1.265 2.637-1.37 0.986-0.096 1.97 0.205 2.734 0.836 0.976 0.818 1.258 1.834 1.376 3.045 1.039 0.637 2.229 1.129 3.312 1.698 1.409-1.665 2.439-2.191 4.492-2.824l0.002-3.463c-0.368-0.147-0.735-0.326-1.055-0.561-0.81-0.599-1.341-1.502-1.473-2.501-0.121-0.994 0.159-1.996 0.779-2.782 0.678-0.851 1.585-1.238 2.636-1.377zM20.931 17.367c-0.209-2.382-2.302-4.148-4.686-3.955-2.404 0.196-4.189 2.311-3.979 4.714 0.211 2.404 2.337 4.176 4.739 3.951 2.381-0.224 4.134-2.328 3.925-4.71z"></path>
<path d="M102.107 11.958c0.708 0.001 1.416 0.011 2.124 0.029l-0.004 3.742c0.545-0.424 1.14-0.739 1.83-0.843 0.933-0.141 1.885 0.1 2.637 0.669 0.908 0.687 1.385 1.844 1.523 2.949 0.175 1.401-0.154 2.749-1.019 3.866-0.574 0.554-1.263 0.941-2.057 1.072-1.165 0.191-2.088-0.216-2.997-0.894l-0.004 0.817-2.033-0.003-0.001-11.404zM105.747 16.862c-0.631 0.21-1.070 0.51-1.378 1.118-0.342 0.675-0.365 1.508-0.098 2.211 0.203 0.538 0.585 1.004 1.117 1.244 0.386 0.175 0.75 0.18 1.165 0.155 0.659-0.249 1.102-0.569 1.401-1.229 0.312-0.689 0.307-1.52 0.011-2.214-0.227-0.533-0.632-0.963-1.177-1.174-0.341-0.131-0.682-0.149-1.042-0.111z"></path>
<path d="M41.272 11.936c1.246 3.84 2.84 7.575 4.055 11.425l-2.296 0.003c-0.269-0.822-0.529-1.752-0.939-2.512-0.268-0.115-0.586-0.076-0.873-0.073-1.108 0.011-2.215 0.007-3.323-0.012-0.348 0.849-0.628 1.722-0.903 2.596l-2.339-0.002c1.221-3.833 2.677-7.617 3.996-11.42 0.872 0.019 1.749-0.001 2.622-0.005zM39.964 14.775c-0.483 1.374-0.934 2.768-1.464 4.125l1.681-0.001 1.306-0.015c-0.184-0.518-1.25-3.88-1.524-4.109z"></path>
<path d="M89.685 11.961l2.196 0.013c-0.030 2.647-0.007 5.298-0.007 7.945-0.001 1.093 0.11 2.287-0.013 3.365l-0.121 0.083h-2.058l-0.004-4.889c-1.645-0.046-3.303-0.005-4.949-0.003l0.001 4.894-2.209-0.004 0.009-11.401 2.2 0.005 0.002 4.662h4.957l-0.003-4.67z"></path>
<path d="M93.202 15.121c0.729 0.021 1.46 0.013 2.188 0.017-0.009 1.165-0.193 4.384 0.089 5.347 0.111 0.38 0.333 0.728 0.693 0.913 0.541 0.278 1.090 0.117 1.628-0.072 0.238-0.266 0.443-0.515 0.561-0.859 0.386-1.123 0.18-4.006 0.174-5.343 0.694 0.019 1.391 0.004 2.085 0-0.016 0.8-0.003 1.603-0.004 2.404l0.011 5.834c-0.683 0.010-1.365 0.005-2.047-0.015l-0.063-0.074c0.010-0.173 0.013-0.314-0.018-0.487-0.639 0.277-1.209 0.697-1.936 0.712-0.843 0.017-1.758-0.245-2.363-0.852-0.459-0.459-0.739-1.076-0.883-1.703-0.31-1.348-0.127-4.332-0.113-5.824z"></path>
<path d="M63.686 14.891c1.089-0.085 2.224-0.008 3.104 0.725 0.617 0.514 0.816 1.13 0.883 1.897l-1.968-0.002c-0.113-0.211-0.227-0.455-0.404-0.619-0.284-0.262-0.694-0.398-1.078-0.377-0.298 0.016-0.679 0.135-0.865 0.387-0.113 0.154-0.175 0.311-0.132 0.503 0.224 1.009 2.79 0.884 3.607 1.419 0.52 0.341 0.919 0.951 1.034 1.56 0.115 0.623-0.033 1.266-0.409 1.775-0.627 0.865-1.593 1.175-2.599 1.329-0.931 0.056-2.011-0.194-2.756-0.761-0.699-0.532-0.95-1.185-1.045-2.025 0.663 0.001 1.326-0.005 1.989-0.018 0.039 0.125 0.082 0.245 0.145 0.361 0.289 0.533 0.865 0.651 1.4 0.808 0.353-0.081 0.831-0.172 1.082-0.457 0.151-0.172 0.204-0.471 0.14-0.691-0.245-0.843-2.703-0.943-3.556-1.468-0.505-0.311-0.876-0.764-1.011-1.349-0.121-0.53-0.075-1.125 0.223-1.59 0.538-0.84 1.28-1.185 2.216-1.408z"></path>
<path d="M76.93 14.889c0.62-0.050 1.227-0.047 1.831 0.117 0.697 0.189 1.438 0.578 1.79 1.239 0.169 0.317 0.3 0.886 0.186 1.237-0.565 0.122-1.255 0.040-1.835 0.033-0.085-0.287-0.158-0.509-0.391-0.707-0.295-0.247-0.679-0.364-1.062-0.322-0.3 0.031-0.685 0.178-0.852 0.447-0.1 0.16-0.141 0.325-0.078 0.509 0.362 1.068 2.535 0.814 3.38 1.297 0.538 0.308 0.988 0.848 1.141 1.454 0.164 0.65 0.056 1.372-0.319 1.931-0.56 0.835-1.449 1.149-2.388 1.331-0.922 0.114-1.989-0.082-2.759-0.613-0.791-0.545-1.028-1.229-1.206-2.123l1.973-0.015c0.12 0.302 0.229 0.537 0.485 0.746 0.341 0.279 0.745 0.406 1.184 0.347 0.341-0.045 0.676-0.202 0.88-0.487 0.133-0.187 0.2-0.414 0.136-0.642-0.247-0.878-2.426-0.823-3.29-1.288-0.584-0.315-1.046-0.838-1.231-1.481-0.157-0.544-0.091-1.11 0.196-1.599 0.477-0.81 1.353-1.206 2.231-1.409z"></path>
<path d="M52.641 12.857c0.655 0.023 1.315 0.009 1.97 0.011-0.007 0.74 0.004 1.48 0.032 2.219l1.944 0.001-0.004 1.694-1.851-0.001c0.001 1.066-0.243 3.817 0.246 4.641 0.382 0.301 1.145 0.189 1.609 0.183l-0.007 1.404c0.004 0.145 0.004 0.218-0.070 0.344-0.259 0.124-0.524 0.152-0.81 0.154-0.752 0.007-1.791-0.129-2.331-0.693-1.086-1.131-0.739-4.457-0.734-6.035l-1.254 0.002 0.004-1.698 1.249 0.008 0.007-2.236z"></path>
<path d="M69.54 12.848l1.934 0.011c-0.015 0.741 0.016 1.485 0.030 2.226l1.976-0.004-0.003 1.702-1.859-0.001c0.023 1.015-0.226 3.85 0.234 4.617 0.494 0.295 1.113 0.216 1.669 0.215-0.007 0.489 0.003 0.979 0.005 1.469l-0.023 0.186c-0.191 0.202-0.486 0.194-0.747 0.2-0.794 0.019-1.891-0.107-2.467-0.71-1.075-1.126-0.74-4.405-0.731-5.978l-1.323 0.001c-0.017-0.564-0.010-1.129-0.015-1.692l1.318 0.007 0.004-2.249z"></path>
<path d="M27.821 11.582c0.102-0.005 0.2-0.007 0.302 0.008 0.316 0.046 0.628 0.198 0.802 0.476 0.185 0.294 0.21 0.687 0.235 1.028 0.125 1.688 0.032 3.444 0.032 5.138-0 1.384 0.153 3.26-0.104 4.592-0.081 0.419-0.359 0.619-0.691 0.846-0.127 0.015-0.259 0.033-0.387 0.026-0.285-0.016-0.556-0.143-0.74-0.361-0.183-0.216-0.177-0.648-0.193-0.919-0.116-1.942-0.018-3.946-0.016-5.893 0.001-1.107-0.151-3.225 0.082-4.213 0.083-0.353 0.402-0.539 0.68-0.727z"></path>
<path d="M50.243 15.058l0.278-0.003c0.329 0.368 0.166 1.535 0.155 2.018-0.696-0.007-1.354-0.035-1.899 0.471-1.023 0.949-0.678 4.425-0.688 5.82-0.548-0.005-1.617 0.195-2.035-0.154l-0.022-0.346c0.010-2.586-0.055-5.169-0.038-7.754 0.664 0.021 1.33 0.007 1.994 0.003l-0.023 1.142c0.123-0.177 0.246-0.366 0.389-0.527 0.503-0.568 1.186-0.619 1.891-0.669z"></path>
<path d="M57.795 15.092l2.086 0.001 0.005 8.275-2.11-0.003 0.019-8.273z"></path>
<path d="M24.906 14.293c0.343 0.063 0.645 0.192 0.845 0.489 0.308 0.459 0.316 4.955 0.162 5.596-0.084 0.351-0.388 0.522-0.675 0.691-0.33-0.020-0.763-0.049-0.983-0.335-0.327-0.425-0.3-5.203-0.114-5.802 0.108-0.348 0.466-0.495 0.765-0.639z"></path>
<path d="M58.701 11.683c0.62-0.073 1.185 0.36 1.276 0.978s-0.325 1.195-0.939 1.304c-0.414 0.073-0.835-0.084-1.099-0.411s-0.33-0.771-0.171-1.161c0.159-0.389 0.516-0.661 0.933-0.71z"></path>
</symbol>
<symbol id="icon-menu-alt-right" viewBox="0 0 32 32">
<path d="M5.333 8h21.333v2.667h-21.333v-2.667zM10.667 14.667h16v2.667h-16v-2.667zM17.333 21.333h9.333v2.667h-9.333v-2.667z"></path>
</symbol>
  </defs>
</svg>
