<svg xmlns="http://www.w3.org/2000/svg" aria-hidden="true" style="position:absolute;width:0;height:0;overflow:hidden">
    <defs>
        <symbol id="right-arrow-icon" viewBox="0 0 32 32">
            <path d="m15.057 23.057 1.885 1.885 8.943-8.943-8.943-8.943-1.885 1.885 5.724 5.724H8v2.667h12.781l-5.724 5.724z"/>
        </symbol>
        <symbol id="left-arrow-icon" viewBox="0 0 32 32">
            <path d="m16.943 23.057-5.724-5.724H24v-2.667H11.219l5.724-5.724-1.885-1.885L6.115 16l8.943 8.943 1.885-1.885z"/>
        </symbol>
        <symbol id="error-icon" viewBox="0 0 32 32">
            <path d="M15.938 2.667C8.621 2.667 2.667 8.648 2.667 16S8.648 29.333 16 29.333 29.333 23.352 29.333 16 23.324 2.667 15.937 2.667zm.063 24C10.12 26.667 5.334 21.882 5.334 16S10.09 5.333 15.938 5.333c5.917 0 10.729 4.785 10.729 10.667S21.882 26.667 16 26.667z"/>
            <path d="M14.667 9.333h2.667v9.333h-2.667V9.333zm0 10.667h2.667v2.667h-2.667V20z"/>
        </symbol>
        <symbol id="chevron-up-icon" viewBox="0 0 32 32">
            <path d="m8.391 19.057 1.885 1.885L16 15.218l5.724 5.724 1.885-1.885L16 11.448l-7.609 7.609z"/>
        </symbol>
        <symbol id="chevron-down-icon" viewBox="0 0 32 32">
            <path d="M21.724 11.057 16 16.781l-5.724-5.724-1.885 1.885L16 20.551l7.609-7.609-1.885-1.885z"/>
        </symbol>
        <symbol id="search-icon" viewBox="0 0 31 32">
            <path d="M12.8 23.68c2.272 0 4.478-.761 6.268-2.161l5.627 5.627 1.81-1.81-5.627-5.627a10.184 10.184 0 0 0 2.162-6.269c0-5.646-4.594-10.24-10.24-10.24S2.56 7.794 2.56 13.44 7.154 23.68 12.8 23.68zm0-17.92c4.236 0 7.68 3.444 7.68 7.68s-3.444 7.68-7.68 7.68-7.68-3.444-7.68-7.68 3.444-7.68 7.68-7.68z"/>
        </symbol>
        <symbol id="close-icon" viewBox="0 0 32 32">
            <path d="m29.671 28.728-.943.943a1.333 1.333 0 0 1-1.886 0L16 18.829 5.158 29.671a1.333 1.333 0 0 1-1.886 0l-.943-.943a1.333 1.333 0 0 1 0-1.886L13.171 16 2.329 5.158a1.333 1.333 0 0 1 0-1.886l.943-.943a1.333 1.333 0 0 1 1.886 0L16 13.171 26.842 2.329a1.333 1.333 0 0 1 1.886 0l.943.943a1.333 1.333 0 0 1 0 1.886L18.829 16l10.842 10.842a1.333 1.333 0 0 1 0 1.886z"/>
        </symbol>
        <symbol id="youtube-icon" viewBox="0 0 31 32">
            <path d="M28.089 10.063a3.258 3.258 0 0 0-2.292-2.297c-2.037-.559-10.187-.568-10.187-.568s-8.148-.009-10.187.526a3.326 3.326 0 0 0-2.297 2.313c-.537 2.037-.542 6.262-.542 6.262s-.005 4.246.528 6.262a3.26 3.26 0 0 0 2.293 2.296c2.058.559 10.185.568 10.185.568s8.15.009 10.187-.524a3.269 3.269 0 0 0 2.299-2.293c.539-2.036.542-6.259.542-6.259s.026-4.247-.529-6.284zM13.003 20.212l.006-7.805 6.773 3.909-6.78 3.896z"/>
        </symbol>
        <symbol id="facebook-icon" viewBox="0 0 31 32">
            <path d="M28.618 16.699c0-7.228-5.824-13.088-13.008-13.088S2.602 9.471 2.602 16.699c0 6.532 4.757 11.947 10.976 12.929v-9.146h-3.303v-3.783h3.303v-2.883c0-3.28 1.942-5.092 4.913-5.092 1.423 0 2.912.256 2.912.256v3.221h-1.64c-1.616 0-2.12 1.009-2.12 2.044V16.7h3.608l-.577 3.783h-3.031v9.146c6.219-.982 10.976-6.396 10.976-12.929z"/>
        </symbol>
        <symbol id="instagram-icon" viewBox="0 0 31 32">
            <path d="M15.608 6.705c3.128 0 3.498.014 4.728.069 1.143.05 1.76.242 2.172.402a3.63 3.63 0 0 1 1.344.874c.412.412.663.8.878 1.345.16.412.352 1.033.402 2.172.055 1.235.069 1.605.069 4.728s-.014 3.498-.069 4.728c-.05 1.143-.242 1.76-.402 2.172a3.617 3.617 0 0 1-.874 1.344c-.412.412-.8.663-1.344.878-.412.16-1.034.352-2.172.402-1.235.055-1.605.069-4.728.069s-3.498-.014-4.728-.069c-1.143-.05-1.76-.242-2.172-.402a3.629 3.629 0 0 1-1.345-.874 3.667 3.667 0 0 1-.878-1.344c-.16-.412-.352-1.034-.402-2.172-.055-1.235-.069-1.605-.069-4.728s.014-3.498.069-4.728c.05-1.143.242-1.76.402-2.172.211-.544.467-.937.874-1.345.412-.412.8-.663 1.345-.878.412-.16 1.033-.352 2.172-.402 1.23-.055 1.601-.069 4.728-.069h.001zm0-2.108c-3.178 0-3.575.014-4.824.069-1.244.055-2.099.256-2.839.544a5.696 5.696 0 0 0-2.076 1.353 5.728 5.728 0 0 0-1.353 2.071c-.288.746-.489 1.596-.544 2.839-.055 1.253-.069 1.651-.069 4.829s.014 3.575.069 4.824c.055 1.244.256 2.099.544 2.839a5.709 5.709 0 0 0 1.353 2.076A5.721 5.721 0 0 0 7.94 27.39c.746.288 1.596.489 2.839.544 1.248.055 1.646.069 4.824.069s3.576-.014 4.824-.069c1.244-.055 2.099-.256 2.839-.544.768-.297 1.422-.699 2.071-1.349s1.052-1.303 1.349-2.071c.288-.745.489-1.596.544-2.839.055-1.248.069-1.646.069-4.824s-.014-3.575-.069-4.824c-.055-1.244-.256-2.099-.544-2.839a5.483 5.483 0 0 0-1.34-2.081 5.721 5.721 0 0 0-2.071-1.349c-.746-.288-1.596-.489-2.839-.544-1.253-.059-1.651-.073-4.829-.073l-.001.001z"/>
            <path d="M15.608 10.289a6.014 6.014 0 1 0 6.013 6.013 6.014 6.014 0 0 0-6.013-6.013zm0 9.914a3.9 3.9 0 1 1 0-7.8 3.9 3.9 0 0 1 0 7.8zM23.261 10.052a1.404 1.404 0 1 1-2.808 0 1.404 1.404 0 0 1 2.808 0z"/>
        </symbol>
        <symbol id="down-arrow-icon" viewBox="0 0 30 32">
            <path d="m29.242 16.215-3.017-3.017-9.158 9.159V1.907H12.8v20.45l-9.158-9.159-3.017 3.017 14.308 14.308 14.308-14.308z"/>
        </symbol>
        <symbol id="next-icon" viewBox="0 0 17 32">
            <path d="m0 31.038 17.067-14.933L0 1.172v29.867z"/>
        </symbol>
        <symbol id="play-icon" viewBox="0 0 23 32">
            <path d="M.817 31.064a1.533 1.533 0 0 0 1.575-.097l19.809-13.714A1.517 1.517 0 0 0 22.857 16a1.527 1.527 0 0 0-.656-1.253L2.392 1.033A1.516 1.516 0 0 0 .816.934a1.522 1.522 0 0 0-.815 1.352v27.429a1.524 1.524 0 0 0 .817 1.35zM3.048 5.195 18.656 16 3.048 26.805V5.194z"/>
        </symbol>
        <symbol id="logo-icon" viewBox="0 0 32 32">
            <path d="M17.501 3.14c.384-.041.83.039 1.2.144.838.238 1.518.747 1.922 1.474a2.94 2.94 0 0 1 .224 2.417c-.352.988-1.105 1.484-2.047 1.94l.011 2.881c.673.191 1.328.407 1.939.737a5.666 5.666 0 0 1 2.768 3.493 5.598 5.598 0 0 1-.673 4.507 5.72 5.72 0 0 1-3.539 2.493c-1.959.456-3.621-.038-5.305-.971-.744.742-1.48 1.492-2.206 2.25.325.713.432 1.461.217 2.219-.21.741-.768 1.376-1.48 1.751-.799.421-1.709.498-2.584.264-.869-.232-1.6-.733-2.024-1.487-.418-.741-.453-1.61-.182-2.401.308-.899.936-1.453 1.819-1.864.95-.346 1.736-.232 2.664.079.772-.757 1.5-1.553 2.28-2.304-.858-1.567-1.135-2.902-.689-4.629-.971-.422-1.907-.914-2.879-1.337a3.458 3.458 0 0 1-1.899.965 3.669 3.669 0 0 1-2.556-.573c-.724-.489-1.2-1.233-1.317-2.059-.12-.8.106-1.683.656-2.314.567-.652 1.448-1.045 2.337-1.131a3.468 3.468 0 0 1 2.422.69c.865.675 1.115 1.514 1.22 2.515.921.526 1.975.932 2.935 1.401 1.248-1.375 2.16-1.809 3.98-2.332l.002-2.859a4.29 4.29 0 0 1-.935-.464c-.718-.495-1.189-1.24-1.306-2.065a2.95 2.95 0 0 1 .691-2.297c.601-.702 1.404-1.022 2.336-1.137zm4.011 14.222c-.185-1.967-2.04-3.425-4.152-3.265-2.131.162-3.713 1.908-3.526 3.892s2.072 3.448 4.2 3.262c2.11-.185 3.663-1.922 3.478-3.889zM27.617 12.585c.09-.004.178-.005.267.007.28.038.556.164.71.393.164.243.186.567.209.849.111 1.394.029 2.844.028 4.243 0 1.142.136 2.691-.092 3.791-.072.346-.318.511-.612.698-.112.013-.23.027-.343.021a.952.952 0 0 1-.656-.298c-.162-.178-.157-.535-.171-.759-.103-1.603-.016-3.258-.014-4.866.001-.914-.134-2.663.072-3.479.074-.292.356-.445.603-.6zM25.036 14.825c.303.052.572.158.749.404.273.379.28 4.091.143 4.621-.075.29-.344.431-.599.57-.292-.016-.676-.04-.871-.276-.29-.351-.266-4.296-.101-4.791.096-.287.413-.409.678-.528z"/>
        </symbol>
        <symbol id="arrow-up" viewBox="0 0 512 512">
            <path d="M256,0C114.618,0,0,114.618,0,256s114.618,256,256,256s256-114.618,256-256S397.382,0,256,0z M256,469.333
      c-117.818,0-213.333-95.515-213.333-213.333S138.182,42.667,256,42.667S469.333,138.182,469.333,256S373.818,469.333,256,469.333
      z"/>
            <path d="M271.085,176.915c-8.331-8.331-21.839-8.331-30.17,0L134.248,283.582c-8.331,8.331-8.331,21.839,0,30.17
      c8.331,8.331,21.839,8.331,30.17,0L256,222.17l91.582,91.582c8.331,8.331,21.839,8.331,30.17,0c8.331-8.331,8.331-21.839,0-30.17
      L271.085,176.915z"/>
        </symbol>
    </defs>
</svg>