<svg width="23" height="31" viewBox="0 0 23 31" fill="none" xmlns="http://www.w3.org/2000/svg">
<path d="M15.8907 0.137947C16.3107 0.0896094 16.7975 0.183611 17.2022 0.306892C18.1179 0.585842 18.8622 1.18361 19.3038 2.03638C19.7625 2.9105 19.8505 3.93268 19.5479 4.87232C19.1636 6.03093 18.3397 6.61319 17.3106 7.14869L17.3223 10.5286C18.0578 10.7528 18.7736 11.0077 19.4414 11.3948C20.9763 12.2847 22.0267 13.7852 22.4668 15.4924C22.9321 17.2827 22.6669 19.1848 21.7305 20.7805C20.8716 22.227 19.502 23.2961 17.8623 23.7053C15.7206 24.2404 13.9043 23.6601 12.0635 22.5657C11.2498 23.4358 10.4459 24.3161 9.65238 25.2053C10.007 26.042 10.1238 26.9198 9.88871 27.8088C9.65878 28.6782 9.04971 29.4231 8.27055 29.8635C7.39742 30.3577 6.40259 30.448 5.44535 30.1741C4.49537 29.9022 3.69676 29.3132 3.23246 28.429C2.77564 27.5596 2.73699 26.5406 3.03324 25.6126C3.37036 24.5579 4.05734 23.9081 5.0225 23.426C6.06118 23.0198 6.91972 23.1536 7.93363 23.5188C8.77799 22.6303 9.57374 21.6974 10.4268 20.8167C9.48926 18.9781 9.18557 17.4119 9.67289 15.386C8.61147 14.8905 7.58749 14.313 6.52543 13.8167C5.95802 14.4073 5.26467 14.8124 4.45024 14.9495C3.47873 15.113 2.45386 14.848 1.65531 14.2776C0.864247 13.7044 0.343676 12.8311 0.21586 11.8626C0.0846693 10.9233 0.332123 9.88801 0.933634 9.14674C1.55385 8.38237 2.51645 7.92146 3.48832 7.81959C4.4434 7.72656 5.39698 8.01802 6.13676 8.62916C7.08228 9.42133 7.35509 10.4058 7.46977 11.5794C8.4764 12.1965 9.62886 12.6728 10.6778 13.2239C12.0425 11.6105 13.0402 11.1017 15.0293 10.4885L15.0313 7.13404C14.6752 6.99152 14.3191 6.81821 14.0088 6.5901C13.2241 6.00963 12.7094 5.13497 12.5821 4.16724C12.4644 3.2043 12.7359 2.23338 13.337 1.47193C13.9939 0.647945 14.8721 0.27274 15.8907 0.137947ZM20.2774 16.8245C20.075 14.5169 18.0469 12.8057 15.7383 12.9934C13.4093 13.1831 11.6799 15.2323 11.8838 17.5598C12.088 19.8883 14.1479 21.6056 16.4746 21.387C18.7807 21.1696 20.4797 19.1318 20.2774 16.8245Z" fill="white"/>
</svg>
